PathFileType	3	(X/Y/Z)	walking_1__fused_aligned.trc
DataRate	CameraRate	NumFrames	NumMarkers	Units	OrigDataRate	OrigDataStartFrame	OrigNumFrames
100.0	100.0	17	19	mm	100.0	4579	6105
Frame#	Time	pelvis			neck			head			hip_left			hip_right			knee_left			knee_right			ankle_left			ankle_right			heel_left			heel_right			toe_left			toe_right			shoulder_left			shoulder_right			elbow_left			elbow_right			wrist_left			wrist_right			
		X1	Y1	Z1	X2	Y2	Z2	X3	Y3	Z3	X4	Y4	Z4	X5	Y5	Z5	X6	Y6	Z6	X7	Y7	Z7	X8	Y8	Z8	X9	Y9	Z9	X10	Y10	Z10	X11	Y11	Z11	X12	Y12	Z12	X13	Y13	Z13	X14	Y14	Z14	X15	Y15	Z15	X16	Y16	Z16	X17	Y17	Z17	X18	Y18	Z18	X19	Y19	Z19	
4579	45.78000	90.931971	936.774660	150.371286	50.807689	1498.632973	244.704566	23.806239	1585.743577	391.653870	169.661909	941.734372	152.017503	12.201782	931.814971	148.725025	165.312338	492.561702	117.389595	-39.264238	546.228909	382.233490	144.396047	97.333390	-22.316453	-63.819993	173.833001	315.880224	138.623694	53.697264	-63.914695	-61.762937	134.758004	281.031838	147.092271	16.068166	154.813209	-78.975914	95.032563	470.324741	238.151845	1454.943350	240.721001	-113.115654	1433.476484	172.864651	321.580137	1165.120890	256.516265	-150.537952	1140.817540	105.386048	320.369012	927.611692	394.886234	-209.993948	868.698573	111.422590
4580	45.79000	89.029738	936.464171	150.689296	48.653126	1498.326745	245.599724	21.210135	1585.425710	392.495898	167.765444	941.263276	152.365563	10.293805	931.665086	149.012989	164.480829	492.000052	116.955191	-40.262159	545.942234	382.423790	143.596761	100.683917	-29.005245	-64.486655	169.337953	323.609316	137.732432	58.150204	-71.102052	-62.598604	128.918866	289.354120	146.635106	16.368988	144.816711	-78.975870	93.901688	482.020034	235.959512	1454.990311	242.155201	-114.920679	1433.124545	173.151464	319.564680	1165.289182	258.011701	-152.334557	1140.585567	104.791554	317.517975	927.800376	396.750082	-212.812020	867.989964	108.814240
4581	45.80000	87.127505	936.153682	151.007307	46.498562	1498.020517	246.494883	18.614031	1585.107843	393.337926	165.868979	940.792181	152.713622	8.385829	931.515202	149.300953	163.649321	491.438402	116.520786	-41.260080	545.655560	382.614090	142.797475	104.034444	-35.694038	-65.153316	164.842905	331.338408	136.841171	62.603143	-78.289410	-63.434271	123.079728	297.676402	146.177941	16.669810	134.820213	-78.975827	92.770812	493.715327	233.767180	1455.037273	243.589401	-116.725703	1432.772606	173.438277	317.549223	1165.457474	259.507136	-154.131161	1140.353593	104.197060	314.666937	927.989060	398.613929	-215.630092	867.281355	106.205890
4582	45.81000	85.225273	935.843193	151.325317	44.343999	1497.714290	247.390041	16.017927	1584.789976	394.179954	163.972514	940.321085	153.061682	6.477852	931.365317	149.588917	162.817813	490.876753	116.086382	-42.258001	545.368885	382.804389	141.998189	107.384971	-42.382830	-65.819978	160.347857	339.067501	135.949909	67.056082	-85.476767	-64.269938	117.240590	305.998684	145.720776	16.970633	124.823715	-78.975783	91.639937	505.410620	231.574848	1455.084234	245.023601	-118.530728	1432.420667	173.725091	315.533767	1165.625766	261.002571	-155.927765	1140.121620	103.602566	311.815900	928.177744	400.477777	-218.448164	866.572746	103.597539
4583	45.82000	83.323040	935.532704	151.643327	42.189435	1497.408062	248.285199	13.421823	1584.472108	395.021982	162.076050	939.849990	153.409742	4.569875	931.215432	149.876881	161.986305	490.315103	115.651977	-43.255922	545.082210	382.994689	141.198903	110.735498	-49.071622	-66.486640	155.852810	346.796593	135.058648	71.509022	-92.664124	-65.105605	111.401452	314.320966	145.263612	17.271455	114.827217	-78.975740	90.509061	517.105912	229.382516	1455.131195	246.457801	-120.335752	1432.068728	174.011904	313.518310	1165.794058	262.498007	-157.724369	1139.889646	103.008072	308.964863	928.366429	402.341625	-221.266236	865.864137	100.989189
4584	45.83000	81.420807	935.222215	151.961337	40.034872	1497.101834	249.180357	10.825718	1584.154241	395.864010	160.179585	939.378894	153.757801	2.661899	931.065547	150.164845	161.154796	489.753453	115.217573	-44.253843	544.795535	383.184989	140.399616	114.086025	-55.760415	-67.153302	151.357762	354.525685	134.167386	75.961961	-99.851482	-65.941272	105.562314	322.643248	144.806447	17.572277	104.830719	-78.975696	89.378186	528.801205	227.190184	1455.178156	247.892001	-122.140777	1431.716789	174.298717	311.502853	1165.962351	263.993442	-159.520973	1139.657673	102.413578	306.113826	928.555113	404.205473	-224.084308	865.155528	98.380839
4585	45.84000	79.518574	934.911726	152.279347	37.880308	1496.795606	250.075515	8.229614	1583.836374	396.706037	158.283120	938.907798	154.105861	0.753922	930.915662	150.452808	160.323288	489.191803	114.783168	-45.251763	544.508861	383.375289	139.600330	117.436552	-62.449207	-67.819963	146.862714	362.254777	133.276125	80.414901	-107.038839	-66.776939	99.723176	330.965530	144.349282	17.873099	94.834221	-78.975653	88.247310	540.496498	224.997852	1455.225117	249.326201	-123.945801	1431.364850	174.585530	309.487396	1166.130643	265.488878	-161.317577	1139.425699	101.819084	303.262788	928.743797	406.069321	-226.902380	864.446919	95.772489
4586	45.85000	77.616342	934.601237	152.597357	35.725745	1496.489379	250.970673	5.633510	1583.518507	397.548065	156.386655	938.436703	154.453920	-1.154054	930.765777	150.740772	159.491780	488.630153	114.348764	-46.249684	544.222186	383.565588	138.801044	120.787079	-69.138000	-68.486625	142.367666	369.983870	132.384863	84.867840	-114.226196	-67.612606	93.884039	339.287812	143.892117	18.173921	84.837722	-78.975609	87.116435	552.191790	222.805520	1455.272078	250.760402	-125.750826	1431.012911	174.872343	307.471939	1166.298935	266.984313	-163.114181	1139.193726	101.224590	300.411751	928.932481	407.933169	-229.720452	863.738309	93.164138
4587	45.86000	75.714109	934.290748	152.915367	33.571181	1496.183151	251.865832	3.037406	1583.200640	398.390093	154.490190	937.965607	154.801980	-3.062031	930.615893	151.028736	158.660272	488.068504	113.914360	-47.247605	543.935511	383.755888	138.001758	124.137606	-75.826792	-69.153287	137.872619	377.712962	131.493602	89.320780	-121.413554	-68.448273	88.044901	347.610094	143.434953	18.474743	74.841224	-78.975566	85.985559	563.887083	220.613188	1455.319040	252.194602	-127.555850	1430.660972	175.159157	305.456483	1166.467227	268.479748	-164.910786	1138.961752	100.630096	297.560714	929.121165	409.797017	-232.538524	863.029700	90.555788
4588	45.87000	73.811876	933.980259	153.233377	31.416617	1495.876923	252.760990	0.441302	1582.882772	399.232121	152.593726	937.494512	155.150040	-4.970007	930.466008	151.316700	157.828764	487.506854	113.479955	-48.245526	543.648837	383.946188	137.202472	127.488133	-82.515585	-69.819949	133.377571	385.442054	130.602341	93.773719	-128.600911	-69.283940	82.205763	355.932376	142.977788	18.775565	64.844726	-78.975522	84.854684	575.582376	218.420856	1455.366001	253.628802	-129.360875	1430.309033	175.445970	303.441026	1166.635520	269.975184	-166.707390	1138.729779	100.035602	294.709677	929.309850	411.660865	-235.356596	862.321091	87.947438
4589	45.88000	71.909643	933.669770	153.551387	29.262054	1495.570695	253.656148	-2.154802	1582.564905	400.074149	150.697261	937.023416	155.498099	-6.877984	930.316123	151.604664	156.997255	486.945204	113.045551	-49.243447	543.362162	384.136487	136.403186	130.838660	-89.204377	-70.486610	128.882523	393.171146	129.711079	98.226659	-135.788268	-70.119606	76.366625	364.254658	142.520623	19.076387	54.848228	-78.975479	83.723808	587.277669	216.228524	1455.412962	255.063002	-131.165899	1429.957094	175.732783	301.425569	1166.803812	271.470619	-168.503994	1138.497805	99.441108	291.858639	929.498534	413.524712	-238.174668	861.612482	85.339087
4590	45.89000	68.266910	933.721744	154.457277	25.586486	1495.605449	254.430960	-5.702503	1582.699997	400.788418	147.095687	936.959180	156.382090	-10.561857	930.484311	152.532439	155.164193	487.389120	117.014032	-51.724214	542.254038	382.531947	134.745984	134.909047	-91.662983	-72.349735	126.200926	394.544566	127.984631	103.394268	-138.860084	-72.001620	73.255364	365.903530	140.838957	19.728943	49.332140	-80.402799	82.160843	589.703063	212.434959	1455.732238	255.458500	-134.874049	1429.957501	176.835584	297.676638	1167.255237	270.823723	-172.313878	1138.493549	101.008670	288.757916	929.628394	411.431374	-241.282040	861.900643	87.908252
4591	45.90000	64.624177	933.773719	155.363167	21.910918	1495.640202	255.205772	-9.250203	1582.835089	401.502687	143.494113	936.894944	157.266081	-14.245730	930.652500	153.460214	153.331131	487.833035	120.982514	-54.204980	541.145914	380.927406	133.088782	138.979434	-94.121589	-74.212859	123.519330	395.917985	126.258183	108.561877	-141.931899	-73.883634	70.144104	367.552402	139.157291	20.381498	43.816052	-81.830120	80.597877	592.128457	208.641394	1456.051513	255.853999	-138.582198	1429.957907	177.938385	293.927706	1167.706661	270.176827	-176.123763	1138.489294	102.576232	285.657192	929.758254	409.338035	-244.389412	862.188805	90.477417
4592	45.91000	60.981444	933.825693	156.269057	18.235350	1495.674955	255.980584	-12.797904	1582.970181	402.216956	139.892539	936.830708	158.150072	-17.929603	930.820688	154.387990	151.498068	488.276951	124.950996	-56.685746	540.037791	379.322866	131.431581	143.049821	-96.580195	-76.075983	120.837733	397.291404	124.531735	113.729487	-145.003715	-75.765647	67.032844	369.201273	137.475626	21.034053	38.299964	-83.257440	79.034912	594.553851	204.847829	1456.370788	256.249497	-142.290347	1429.958313	179.041185	290.178775	1168.158086	269.529931	-179.933647	1138.485038	104.143794	282.556469	929.888114	407.244696	-247.496784	862.476966	93.046582
4593	45.92000	57.338711	933.877668	157.174947	14.559781	1495.709708	256.755396	-16.345604	1583.105273	402.931225	136.290965	936.766472	159.034063	-21.613476	930.988877	155.315765	149.665006	488.720867	128.919478	-59.166512	538.929667	377.718325	129.774379	147.120209	-99.038801	-77.939108	118.156136	398.664823	122.805287	118.897096	-148.075530	-77.647661	63.921584	370.850145	135.793960	21.686609	32.783875	-84.684761	77.471947	596.979246	201.054264	1456.690064	256.644996	-145.998497	1429.958720	180.143986	286.429844	1168.609511	268.883035	-183.743532	1138.480782	105.711356	279.455745	930.017974	405.151358	-250.604156	862.765128	95.615747
4594	45.93000	53.695978	933.929643	158.080837	10.884213	1495.744462	257.530208	-19.893305	1583.240365	403.645494	132.689391	936.702236	159.918054	-25.297349	931.157065	156.243540	147.831943	489.164783	132.887959	-61.647279	537.821543	376.113784	128.117177	151.190596	-101.497407	-79.802232	115.474539	400.038242	121.078839	124.064706	-151.147346	-79.529675	60.810324	372.499017	134.112294	22.339164	27.267787	-86.112081	75.908982	599.404640	197.260699	1457.009339	257.040494	-149.706646	1429.959126	181.246787	282.680913	1169.060936	268.236139	-187.553416	1138.476526	107.278918	276.355022	930.147834	403.058019	-253.711528	863.053289	98.184912
4595	45.94000	50.053245	933.981617	158.986726	7.208645	1495.779215	258.305020	-23.441006	1583.375457	404.359763	129.087816	936.638000	160.802045	-28.981222	931.325253	157.171315	145.998881	489.608698	136.856441	-64.128045	536.713419	374.509244	126.459976	155.260983	-103.956013	-81.665356	112.792942	401.411661	119.352391	129.232315	-154.219161	-81.411688	57.699064	374.147888	132.430628	22.991719	21.751699	-87.539402	74.346016	601.830034	193.467134	1457.328615	257.435993	-153.414795	1429.959533	182.349588	278.931981	1169.512360	267.589243	-191.363300	1138.472270	108.846480	273.254298	930.277695	400.964680	-256.818900	863.341450	100.754077
